<svg xmlns="http://www.w3.org/2000/svg" viewBox="0 0 430 100">
  <!-- Badge with cutout pinwheel (bg shines through) -->
  <path d="M14 0 L86 0 A14 14 0 0 1 100 14 L100 86 A14 14 0 0 1 86 100 L14 100 A14 14 0 0 1 0 86 L0 14 A14 14 0 0 1 14 0 Z M 50.598 16.442 C 50.626 16.714 50.666 22.718 50.694 29.804 C 50.728 36.876 50.768 43.064 50.802 43.547 L 50.850 44.417 L 57.854 37.325 C 61.703 33.422 64.865 30.198 64.878 30.164 C 64.892 30.117 53.856 19.148 51.272 16.653 L 50.551 15.959 L 50.598 16.442 M 37.046 26.370 C 33.014 26.411 29.002 26.452 28.124 26.458 L 26.526 26.486 L 34.877 34.700 C 39.467 39.215 44.043 43.717 45.043 44.689 L 46.858 46.471 L 46.811 43.397 C 46.784 41.711 46.736 37.168 46.716 33.299 L 46.668 26.282 L 45.512 26.295 C 44.893 26.302 41.078 26.336 37.046 26.370 M 64.974 37.576 L 54.896 47.654 L 65.001 47.654 L 75.092 47.654 L 75.092 37.576 C 75.092 32.028 75.085 27.492 75.072 27.492 C 75.065 27.492 70.522 32.028 64.974 37.576 M 23.650 43.118 L 16.524 50.245 L 30.817 50.245 L 45.104 50.245 L 37.978 43.118 C 34.061 39.202 30.838 35.992 30.817 35.992 C 30.790 35.992 27.567 39.202 23.650 43.118 M 49.837 46.600 C 49.177 46.736 48.348 47.205 47.885 47.715 C 45.886 49.898 47.042 53.352 49.959 53.896 C 51.659 54.209 53.482 53.142 54.046 51.496 C 54.604 49.878 54.026 48.130 52.618 47.151 C 51.904 46.668 50.687 46.423 49.837 46.600 M 62.043 57.385 L 69.183 64.532 L 76.323 57.385 L 83.476 50.245 L 69.183 50.245 L 54.896 50.245 L 62.043 57.385 M 26.445 64.062 L 26.445 74.167 L 36.522 64.083 C 42.064 58.541 46.600 53.998 46.600 53.992 C 46.600 53.978 42.064 53.964 36.522 53.964 L 26.445 53.964 L 26.445 64.062 M 54.291 64.613 L 54.291 74.691 L 64.382 74.691 L 74.487 74.691 L 64.409 64.613 C 58.867 59.064 54.325 54.536 54.318 54.536 C 54.298 54.536 54.291 59.064 54.291 64.613 M 42.914 62.757 C 39.134 66.735 36.026 70.019 36.012 70.060 C 36.006 70.094 39.276 73.249 43.282 77.064 L 50.564 84.000 L 50.517 82.565 C 50.496 81.776 50.333 75.378 50.163 68.353 C 49.993 61.322 49.837 55.562 49.823 55.542 C 49.816 55.535 46.702 58.786 42.914 62.757" fill="#D94A43" fill-rule="evenodd"/>
  <!-- Wordmark: Archivo 800, 44pt, ls -0.5 (outlined) -->
  <g fill="#374151" transform="translate(122 54.916)">
      <path transform="translate(0.000 0) scale(0.04400 -0.04400)" d="M75 0V687H453Q523 687 572.5 658.5Q622 630 648.5 579.5Q675 529 675 461Q675 391 647.5 340.0Q620 289 569.5 260.5Q519 232 449 232H254V0ZM254 370H407Q449 370 471.0 393.5Q493 417 493 459Q493 489 483.5 508.0Q474 527 455.0 537.5Q436 548 407 548H254Z"/>
      <path transform="translate(30.212 0) scale(0.04400 -0.04400)" d="M391 -12Q292 -12 220.5 19.0Q149 50 111.0 112.0Q73 174 73 266V687H253V270Q253 204 288.0 166.0Q323 128 391 128Q459 128 495.0 166.0Q531 204 531 270V687H710V266Q710 174 672.0 112.0Q634 50 563.0 19.0Q492 -12 391 -12Z"/>
      <path transform="translate(64.164 0) scale(0.04400 -0.04400)" d="M75 0V687H254V147H603V0Z"/>
      <path transform="translate(91.076 0) scale(0.04400 -0.04400)" d="M360 -12Q295 -12 238.0 -0.5Q181 11 137.5 37.0Q94 63 69.0 105.5Q44 148 44 210Q44 214 44.0 219.0Q44 224 45 227H218Q218 224 217.5 219.5Q217 215 217 212Q217 180 233.5 160.5Q250 141 280.0 132.5Q310 124 350 124Q372 124 391.0 126.0Q410 128 425.0 133.0Q440 138 451.5 145.5Q463 153 468.5 163.5Q474 174 474 188Q474 211 456.5 226.0Q439 241 409.5 251.0Q380 261 343.0 270.0Q306 279 266.0 289.0Q226 299 189.0 314.0Q152 329 122.5 352.0Q93 375 75.5 409.5Q58 444 58 493Q58 547 81.0 586.5Q104 626 144.5 651.0Q185 676 238.0 687.5Q291 699 351 699Q410 699 461.5 687.0Q513 675 553.0 649.5Q593 624 615.5 585.5Q638 547 639 493V481H467V488Q467 511 454.5 528.5Q442 546 417.0 556.5Q392 567 355 567Q318 567 292.5 560.0Q267 553 253.5 540.0Q240 527 240 509Q240 487 257.5 473.0Q275 459 305.0 449.0Q335 439 372.0 430.5Q409 422 448.5 412.5Q488 403 525.0 388.5Q562 374 592.0 351.5Q622 329 639.5 296.0Q657 263 657 216Q657 134 618.5 84.0Q580 34 512.5 11.0Q445 -12 360 -12Z"/>
      <path transform="translate(121.244 0) scale(0.04400 -0.04400)" d="M77 0V687H644V547H256V418H595V281H256V140H651V0Z"/>
      <path transform="translate(151.500 0) scale(0.04400 -0.04400)" d="M75 0V687H602V547H254V399H560V262H254V0Z"/>
      <path transform="translate(179.204 0) scale(0.04400 -0.04400)" d="M77 0V687H644V547H256V418H595V281H256V140H651V0Z"/>
      <path transform="translate(209.460 0) scale(0.04400 -0.04400)" d="M77 0V687H644V547H256V418H595V281H256V140H651V0Z"/>
      <path transform="translate(239.716 0) scale(0.04400 -0.04400)" d="M75 0V687H362Q474 687 551.5 650.0Q629 613 669.5 537.5Q710 462 710 344Q710 227 669.5 150.5Q629 74 551.5 37.0Q474 0 362 0ZM254 140H360Q402 140 433.0 152.0Q464 164 485.0 187.0Q506 210 516.0 244.0Q526 278 526 322V364Q526 409 516.0 443.0Q506 477 485.0 500.0Q464 523 433.0 535.0Q402 547 360 547H254Z"/>
      <path transform="translate(272.436 0) scale(0.04400 -0.04400)" d="M360 -12Q295 -12 238.0 -0.5Q181 11 137.5 37.0Q94 63 69.0 105.5Q44 148 44 210Q44 214 44.0 219.0Q44 224 45 227H218Q218 224 217.5 219.5Q217 215 217 212Q217 180 233.5 160.5Q250 141 280.0 132.5Q310 124 350 124Q372 124 391.0 126.0Q410 128 425.0 133.0Q440 138 451.5 145.5Q463 153 468.5 163.5Q474 174 474 188Q474 211 456.5 226.0Q439 241 409.5 251.0Q380 261 343.0 270.0Q306 279 266.0 289.0Q226 299 189.0 314.0Q152 329 122.5 352.0Q93 375 75.5 409.5Q58 444 58 493Q58 547 81.0 586.5Q104 626 144.5 651.0Q185 676 238.0 687.5Q291 699 351 699Q410 699 461.5 687.0Q513 675 553.0 649.5Q593 624 615.5 585.5Q638 547 639 493V481H467V488Q467 511 454.5 528.5Q442 546 417.0 556.5Q392 567 355 567Q318 567 292.5 560.0Q267 553 253.5 540.0Q240 527 240 509Q240 487 257.5 473.0Q275 459 305.0 449.0Q335 439 372.0 430.5Q409 422 448.5 412.5Q488 403 525.0 388.5Q562 374 592.0 351.5Q622 329 639.5 296.0Q657 263 657 216Q657 134 618.5 84.0Q580 34 512.5 11.0Q445 -12 360 -12Z"/>
    </g>
  <!-- Tagline: Archivo 500, 18pt, ls 1.4 (outlined, right-aligned) -->
  <g fill="#9CA3AF" transform="translate(180.924 75.264)">
      <path transform="translate(0.000 0) scale(0.01800 -0.01800)" d="M378 -12Q273 -12 199.5 25.5Q126 63 87.0 142.0Q48 221 48 343Q48 523 135.5 610.5Q223 698 379 698Q465 698 533.5 669.0Q602 640 641.5 582.5Q681 525 681 436H567Q567 491 544.0 528.0Q521 565 478.5 584.0Q436 603 380 603Q310 603 261.5 575.5Q213 548 188.5 493.0Q164 438 164 353V331Q164 246 188.5 191.0Q213 136 261.0 109.5Q309 83 380 83Q438 83 481.0 101.5Q524 120 547.5 157.0Q571 194 571 249H681Q681 160 641.5 102.0Q602 44 533.5 16.0Q465 -12 378 -12Z"/>
      <path transform="translate(14.450 0) scale(0.01800 -0.01800)" d="M81 0V686H193V97H535V0Z"/>
      <path transform="translate(25.786 0) scale(0.01800 -0.01800)" d="M81 0V686H193V0Z"/>
      <path transform="translate(32.118 0) scale(0.01800 -0.01800)" d="M81 0V686H189L502 256Q508 250 515.5 239.0Q523 228 530.0 217.0Q537 206 540 199H545Q545 214 545.0 228.0Q545 242 545 256V686H653V0H549L232 435Q224 447 212.0 465.5Q200 484 194 494H189Q189 480 189.0 465.5Q189 451 189 435V0Z"/>
      <path transform="translate(46.730 0) scale(0.01800 -0.01800)" d="M81 0V686H193V0Z"/>
      <path transform="translate(53.062 0) scale(0.01800 -0.01800)" d="M378 -12Q273 -12 199.5 25.5Q126 63 87.0 142.0Q48 221 48 343Q48 523 135.5 610.5Q223 698 379 698Q465 698 533.5 669.0Q602 640 641.5 582.5Q681 525 681 436H567Q567 491 544.0 528.0Q521 565 478.5 584.0Q436 603 380 603Q310 603 261.5 575.5Q213 548 188.5 493.0Q164 438 164 353V331Q164 246 188.5 191.0Q213 136 261.0 109.5Q309 83 380 83Q438 83 481.0 101.5Q524 120 547.5 157.0Q571 194 571 249H681Q681 160 641.5 102.0Q602 44 533.5 16.0Q465 -12 378 -12Z"/>
      <path transform="translate(67.512 0) scale(0.01800 -0.01800)" d="M6 0 275 686H418L688 0H568L507 159H182L121 0ZM218 254H470L393 455Q390 464 384.0 480.0Q378 496 371.5 515.0Q365 534 358.5 553.5Q352 573 347 589H341Q335 570 326.0 544.0Q317 518 308.5 494.0Q300 470 294 455Z"/>
      <path transform="translate(81.422 0) scale(0.01800 -0.01800)" d="M81 0V686H193V97H535V0Z"/>
      <path transform="translate(97.848 0) scale(0.01800 -0.01800)" d="M81 0V686H193V0Z"/>
      <path transform="translate(104.180 0) scale(0.01800 -0.01800)" d="M81 0V686H189L502 256Q508 250 515.5 239.0Q523 228 530.0 217.0Q537 206 540 199H545Q545 214 545.0 228.0Q545 242 545 256V686H653V0H549L232 435Q224 447 212.0 465.5Q200 484 194 494H189Q189 480 189.0 465.5Q189 451 189 435V0Z"/>
      <path transform="translate(118.792 0) scale(0.01800 -0.01800)" d="M249 0V590H22V686H590V590H361V0Z"/>
      <path transform="translate(131.208 0) scale(0.01800 -0.01800)" d="M81 0V686H613V590H193V399H569V303H193V96H619V0Z"/>
      <path transform="translate(144.740 0) scale(0.01800 -0.01800)" d="M81 0V686H193V97H535V0Z"/>
      <path transform="translate(156.076 0) scale(0.01800 -0.01800)" d="M81 0V686H193V97H535V0Z"/>
      <path transform="translate(167.412 0) scale(0.01800 -0.01800)" d="M81 0V686H193V0Z"/>
      <path transform="translate(173.744 0) scale(0.01800 -0.01800)" d="M392 -12Q229 -12 141.5 74.0Q54 160 54 343Q54 463 95.0 541.5Q136 620 214.0 659.0Q292 698 404 698Q471 698 528.5 683.0Q586 668 629.5 637.5Q673 607 696.5 561.0Q720 515 720 452H606Q606 491 590.5 519.5Q575 548 547.5 567.0Q520 586 483.5 594.5Q447 603 406 603Q349 603 304.5 588.0Q260 573 230.0 542.0Q200 511 185.0 464.0Q170 417 170 353V332Q170 244 195.5 189.0Q221 134 271.5 108.5Q322 83 395 83Q464 83 511.0 103.0Q558 123 583.0 162.5Q608 202 608 261V271H377V364H720V0H639L628 82Q600 49 564.0 28.5Q528 8 485.5 -2.0Q443 -12 392 -12Z"/>
      <path transform="translate(189.454 0) scale(0.01800 -0.01800)" d="M81 0V686H613V590H193V399H569V303H193V96H619V0Z"/>
      <path transform="translate(202.986 0) scale(0.01800 -0.01800)" d="M81 0V686H189L502 256Q508 250 515.5 239.0Q523 228 530.0 217.0Q537 206 540 199H545Q545 214 545.0 228.0Q545 242 545 256V686H653V0H549L232 435Q224 447 212.0 465.5Q200 484 194 494H189Q189 480 189.0 465.5Q189 451 189 435V0Z"/>
      <path transform="translate(217.598 0) scale(0.01800 -0.01800)" d="M378 -12Q273 -12 199.5 25.5Q126 63 87.0 142.0Q48 221 48 343Q48 523 135.5 610.5Q223 698 379 698Q465 698 533.5 669.0Q602 640 641.5 582.5Q681 525 681 436H567Q567 491 544.0 528.0Q521 565 478.5 584.0Q436 603 380 603Q310 603 261.5 575.5Q213 548 188.5 493.0Q164 438 164 353V331Q164 246 188.5 191.0Q213 136 261.0 109.5Q309 83 380 83Q438 83 481.0 101.5Q524 120 547.5 157.0Q571 194 571 249H681Q681 160 641.5 102.0Q602 44 533.5 16.0Q465 -12 378 -12Z"/>
      <path transform="translate(232.048 0) scale(0.01800 -0.01800)" d="M81 0V686H613V590H193V399H569V303H193V96H619V0Z"/>
    </g>
</svg>